# xmcd
#
# Track frame offsets:
#	156
#	15927
#	36090
#	54208
#	72671
#	119155
#	136822
#	155624
#	167801
#	192853
#	215995
#
# Disc length: 3054 seconds
#
# Revision: 1
# Processed by: cddbd v1.5.2PL0 Copyright (c) Steve Scherf et al.
# Submitted via: audiograbber 1.83.01
#
DISCID=9f0bec0b
DTITLE=Mike McClennan - An Evening with Mike McClennan Live
DYEAR=1900
DGENRE=
TTITLE0=Jelly Roll Baker
TTITLE1=Saturday Dance
TTITLE2=Midnight Flight
TTITLE3=The One I Love
TTITLE4=High Flyin' Bird
TTITLE5=Rock 'n' Roll Lady
TTITLE6=California Cool
TTITLE7=Hot Chilli
TTITLE8=You're Gonna Need Somebody
TTITLE9=Mr Bogangles
TTITLE10=Song and Danceman
EXTD=
EXTT0=
EXTT1=
EXTT2=
EXTT3=
EXTT4=
EXTT5=
EXTT6=
EXTT7=
EXTT8=
EXTT9=
EXTT10=
PLAYORDER=
